<svg xmlns="http://www.w3.org/2000/svg" viewBox="0 0 512 512" fill="none">
  <rect width="512" height="512" rx="72" fill="#010d14"/>
  <rect x="20" y="20" width="472" height="472" rx="60" stroke="#007a99" stroke-width="3"/>
  <polygon points="256,88 394,168 394,344 256,424 118,344 118,168" stroke="#00d4ff" stroke-width="2" opacity="0.45" fill="none"/>
  <circle cx="256" cy="256" r="160" stroke="#00d4ff" stroke-width="5" opacity="0.5"/>
  <circle cx="256" cy="256" r="120" stroke="#00d4ff" stroke-width="3"/>
  <circle cx="256" cy="256" r="60" fill="#010f18" stroke="#00d4ff" stroke-width="7"/>
  <circle cx="256" cy="256" r="28" fill="#d8f8ff"/>
  <g stroke="#00d4ff" stroke-width="3" opacity="0.8">
    <line x1="256" y1="196" x2="256" y2="136"/><line x1="256" y1="316" x2="256" y2="376"/>
    <line x1="196" y1="256" x2="136" y2="256"/><line x1="316" y1="256" x2="376" y2="256"/>
    <line x1="214" y1="214" x2="168" y2="168"/><line x1="298" y1="298" x2="344" y2="344"/>
    <line x1="298" y1="214" x2="344" y2="168"/><line x1="214" y1="298" x2="168" y2="344"/>
  </g>
  <path d="M52 52 H88 V88" stroke="#00d4ff" stroke-width="4"/><path d="M460 52 H424 V88" stroke="#00d4ff" stroke-width="4"/>
  <path d="M52 460 H88 V424" stroke="#00d4ff" stroke-width="4"/><path d="M460 460 H424 V424" stroke="#00d4ff" stroke-width="4"/>
</svg>
